#!OML:ASF I:\Actors\actors\Patient Classification 1\Patient 1\Session 1\Subject1.ASF
:FULLY-SPECIFIED
:DEGREES
312
root 0.693366 17.4914 9.94913 12.6046 -7.01878 -8.6459
lowerback -2.21114 0.0840146 2.58449
upperback -10.0404 0.266111 1.39278
thorax -9.34786 -0.0249559 0.0214829
lowerneck -2.32556 0.442748 -3.00583
upperneck 27.4337 -3.14126 15.9597
head 9.19873 -0.286485 5.87769
rclavicle -4.96962e-015 -1.51076e-014
rhumerus -44.916 -16.7324 -74.4399
rradius 34.275
rwrist 32.151
rhand 5.0032 -32.3309
rfingers 7.12502
rthumb 30.373 -59.85
lclavicle -4.96962e-015 -1.51076e-014
lhumerus 26.6946 2.04205 72.6851
lradius 110.12
lwrist 68.2343
lhand -16.6309 8.94017
lfingers 7.12502
lthumb 9.59145 38.7018
rfemur -6.80582 22.5384 23.9617
rtibia 4.25838
rfoot -12.1527 -18.8302
rtoes -0.577734
lfemur 8.37842 -47.1337 -16.1401
ltibia -4.86651
lfoot -38.377 57.0161
ltoes 20.5741
313
root 0.684804 17.4937 9.96745 12.1614 -6.99017 -8.42309
lowerback -2.41349 0.184389 2.71417
upperback -10.1528 0.388055 1.22143
thorax -9.35107 0.0151937 -0.238599
lowerneck -2.40732 0.361784 -3.07178
upperneck 28.1087 -3.34657 15.9719
head 9.48352 -0.360591 5.92062
rclavicle -2.88238e-014 -1.19271e-014
rhumerus -45.1344 -16.5836 -74.6712
rradius 34.5074
rwrist 31.7237
rhand 5.3317 -32.6098
rfingers 7.12502
rthumb 30.6863 -60.0706
lclavicle -2.88238e-014 -1.19271e-014
lhumerus 26.1121 1.23731 72.2518
lradius 114.147
lwrist 69.0621
lhand -15.4151 9.16203
lfingers 7.12502
lthumb 10.7643 38.8662
rfemur -6.20961 22.4059 23.9285
rtibia 4.21272
rfoot -12.317 -18.7216
rtoes -0.729222
lfemur 8.25381 -45.1028 -16.1043
ltibia -4.8109
lfoot -35.2456 55.7577
ltoes 18.8725
314
root 0.678826 17.4981 9.98218 11.7088 -6.89649 -8.0812
lowerback -2.57231 0.268255 2.79866
upperback -10.2305 0.483433 0.996999
thorax -9.34019 0.0436472 -0.528242
lowerneck -2.6785 0.269167 -2.98869
upperneck 28.7772 -3.54618 15.8218
head 9.8046 -0.424185 5.87793
rclavicle 4.37326e-015 2.38542e-015
rhumerus -45.2735 -16.5644 -74.8836
rradius 34.5677
rwrist 31.6337
rhand 5.48778 -32.814
rfingers 7.12502
rthumb 30.8351 -60.2468
lclavicle 4.37326e-015 2.38542e-015
lhumerus 25.4856 0.463915 71.8817
lradius 118.056
lwrist 69.6816
lhand -13.9823 9.41386
lfingers 7.12502
lthumb 12.1461 39.0413
rfemur -5.59109 22.2634 23.7581
rtibia 4.08414
rfoot -12.3731 -18.7195
rtoes -0.899567
lfemur 8.04637 -43.2043 -16.1858
ltibia -4.60889
lfoot -32.5616 54.3678
ltoes 17.3152
315
root 0.673626 17.5024 9.99656 11.2575 -6.74472 -7.74777
lowerback -2.75107 0.329329 2.88749
upperback -10.2698 0.548558 0.799527
thorax -9.27502 0.0591523 -0.789814
lowerneck -2.98125 0.208593 -2.95669
upperneck 29.3353 -3.6894 15.7188
head 10.0887 -0.464767 5.8604
rclavicle 7.55382e-015 1.27222e-014
rhumerus -45.3583 -16.5099 -75.0888
rradius 34.5114
rwrist 31.6842
rhand 5.50226 -33.0646
rfingers 7.12502
rthumb 30.8489 -60.4947
lclavicle 7.55382e-015 1.27222e-014
lhumerus 24.8333 -0.202131 71.5904
lradius 121.829
lwrist 70.1163
lhand -12.375 9.71224
lfingers 7.12502
lthumb 13.6956 39.2416
rfemur -4.9034 22.287 23.6316
rtibia 3.88171
rfoot -12.4511 -18.9521
rtoes -0.908004
lfemur 7.74054 -41.0097 -16.1346
ltibia -4.37433
lfoot -29.7375 52.6044
ltoes 15.8127
316
root 0.668223 17.5068 10.0098 10.8728 -6.55207 -7.42594
lowerback -2.99978 0.381492 2.95847
upperback -10.3148 0.599208 0.612235
thorax -9.17528 0.0700503 -1.02905
lowerneck -3.20669 0.168259 -2.91015
upperneck 29.7147 -3.78546 15.642
head 10.2875 -0.488105 5.84194
rclavicle 2.38542e-015 7.95139e-015
rhumerus -45.4353 -16.5443 -75.2024
rradius 34.282
rwrist 31.8049
rhand 5.50077 -33.039
rfingers 7.12502
rthumb 30.8475 -60.4694
lclavicle 2.38542e-015 7.95139e-015
lhumerus 24.1095 -0.879087 71.263
lradius 125.433
lwrist 70.4421
lhand -11.2554 9.68803
lfingers 7.12502
lthumb 14.7744 39.1414
rfemur -4.2734 22.465 23.5206
rtibia 3.69571
rfoot -12.621 -19.3814
rtoes -0.624704
lfemur 7.35271 -38.8079 -15.9901
ltibia -4.11055
lfoot -27.0407 50.7308
ltoes 14.3469
317
root 0.663577 17.5108 10.0196 10.5532 -6.33381 -7.10465
lowerback -3.23227 0.431563 3.02412
upperback -10.3757 0.647962 0.425738
thorax -9.10313 0.0800903 -1.26402
lowerneck -3.4136 0.121644 -2.88193
upperneck 29.9435 -3.87243 15.5859
head 10.426 -0.51273 5.82546
rclavicle 1.82882e-014 -1.19271e-014
rhumerus -45.504 -16.6144 -75.2604
rradius 33.9692
rwrist 31.991
rhand 5.49665 -32.9561
rfingers 7.12502
rthumb 30.8436 -60.3873
lclavicle 1.82882e-014 -1.19271e-014
lhumerus 23.272 -1.6131 70.8732
lradius 128.848
lwrist 70.5224
lhand -10.9193 9.52019
lfingers 7.12502
lthumb 15.0982 38.9495
rfemur -3.75784 22.7017 23.3893
rtibia 3.56516
rfoot -12.7887 -19.9142
rtoes -0.448195
lfemur 6.99551 -37.0495 -15.9144
ltibia -3.82191
lfoot -24.6737 49.1513
ltoes 12.5895
318
root 0.660113 17.5137 10.0267 10.2068 -6.08438 -6.80398
lowerback -3.38771 0.451403 3.05928
upperback -10.3935 0.662924 0.312952
thorax -9.03003 0.0802514 -1.40266
lowerneck -3.73399 0.0659931 -2.95985
upperneck 30.1857 -3.9463 15.4779
head 10.5909 -0.54391 5.8116
rclavicle -3.04141e-014 1.82882e-014
rhumerus -45.5081 -16.5216 -75.2974
rradius 33.6931
rwrist 32.1425
rhand 5.5854 -32.9644
rfingers 7.12502
rthumb 30.9282 -60.3795
lclavicle -3.04141e-014 1.82882e-014
lhumerus 22.4484 -2.27502 70.5452
lradius 132.093
lwrist 70.4897
lhand -11.252 9.79493
lfingers 7.12502
lthumb 14.7777 39.2481
rfemur -3.22832 22.9329 23.2939
rtibia 3.44612
rfoot -12.9095 -20.4546
rtoes -0.299241
lfemur 6.74178 -35.4821 -15.8775
ltibia -3.58233
lfoot -22.4295 47.6844
ltoes 10.4229
319
root 0.656563 17.5177 10.0298 9.79032 -5.89476 -6.54669
lowerback -3.45952 0.485749 3.01918
upperback -10.3749 0.702781 0.260074
thorax -8.96443 0.102334 -1.43745
lowerneck -3.96553 0.0133279 -2.99169
upperneck 30.339 -3.99098 15.3105
head 10.6992 -0.568984 5.76173
rclavicle 3.57812e-015 -2.54444e-014
rhumerus -45.5115 -16.392 -75.2571
rradius 33.3719
rwrist 32.3455
rhand 5.63405 -32.932
rfingers 7.12502
rthumb 30.9746 -60.3383
lclavicle 3.57812e-015 -2.54444e-014
lhumerus 21.7776 -2.92837 70.2818
lradius 135.1
lwrist 70.5327
lhand -11.8739 10.42
lfingers 7.12502
lthumb 14.1785 39.9162
rfemur -2.6596 23.1288 23.2682
rtibia 3.38064
rfoot -13.037 -20.8681
rtoes -0.0430291
lfemur 6.73388 -34.2329 -15.9709
ltibia -3.40878
lfoot -20.7787 46.4712
ltoes 8.69733
320
root 0.653258 17.5216 10.0269 9.41451 -5.83397 -6.3482
lowerback -3.45396 0.552953 2.9194
upperback -10.3815 0.791374 0.2442
thorax -8.97069 0.153818 -1.40253
lowerneck -4.09028 -0.00810764 -3.06086
upperneck 30.2952 -4.0095 15.332
head 10.7107 -0.576936 5.78007
rclavicle 1.0138e-014 9.54166e-015
rhumerus -45.578 -16.2422 -75.1906
rradius 33.0743
rwrist 32.5885
rhand 5.68119 -32.9982
rfingers 7.12502
rthumb 31.0195 -60.396
lclavicle 1.0138e-014 9.54166e-015
lhumerus 21.2595 -3.62362 69.9814
lradius 137.782
lwrist 70.6291
lhand -12.4441 10.9151
lfingers 7.12502
lthumb 13.629 40.4489
rfemur -2.2565 23.2317 23.2524
rtibia 3.4595
rfoot -13.1816 -21.062
rtoes 0.0743408
lfemur 6.83136 -33.2988 -16.124
ltibia -3.27885
lfoot -19.6302 45.6056
ltoes 7.54625
321
root 0.652815 17.522 10.0194 9.18293 -5.62778 -6.18219
lowerback -3.44641 0.571482 2.8638
upperback -10.4577 0.817824 0.243304
thorax -9.0597 0.16977 -1.37405
lowerneck -4.21407 -0.0179408 -3.16683
upperneck 30.174 -4.01457 15.4231
head 10.6921 -0.57803 5.82827
rclavicle -6.75868e-015 6.36111e-015
rhumerus -45.7359 -16.0477 -75.082
rradius 32.8349
rwrist 32.8228
rhand 5.72214 -32.9624
rfingers 7.12502
rthumb 31.0585 -60.3527
lclavicle -6.75868e-015 6.36111e-015
lhumerus 20.779 -4.37597 69.6146
lradius 140.145
lwrist 70.7087
lhand -12.6576 11.1712
lfingers 7.12502
lthumb 13.4232 40.7187
rfemur -2.08688 23.1773 23.1868
rtibia 3.6355
rfoot -13.3686 -21.1995
rtoes 0.304282
lfemur 6.63368 -32.3595 -16.064
ltibia -3.07838
lfoot -18.4504 44.6408
ltoes 6.25198
322
root 0.655205 17.5213 10.0113 8.98178 -5.18219 -6.03383
lowerback -3.48546 0.545516 2.84804
upperback -10.5544 0.784096 0.235502
thorax -9.14728 0.152458 -1.37214
lowerneck -4.25822 -0.0666381 -3.1804
upperneck 30.0727 -4.05542 15.3859
head 10.6665 -0.600768 5.80674
rclavicle 1.07344e-014 -2.38542e-015
rhumerus -45.9778 -15.9315 -74.8524
rradius 32.5924
rwrist 33.0369
rhand 5.79495 -32.9161
rfingers 7.12502
rthumb 31.1279 -60.2931
lclavicle 1.07344e-014 -2.38542e-015
lhumerus 20.3139 -5.29598 69.2378
lradius 142.203
lwrist 70.5907
lhand -12.4034 11.144
lfingers 7.12502
lthumb 13.6682 40.6752
rfemur -1.91549 23.0728 23.1461
rtibia 3.78974
rfoot -13.5801 -21.4916
rtoes 0.613145
lfemur 6.35455 -31.6759 -15.9528
ltibia -2.84018
lfoot -17.4606 43.7217
ltoes 5.00162
323
root 0.659273 17.5204 10.0038 8.72975 -4.70922 -5.94079
lowerback -3.51919 0.541559 2.82079
upperback -10.6157 0.781371 0.25068
thorax -9.19699 0.153779 -1.34075
lowerneck -4.22777 -0.170873 -3.17072
upperneck 29.9147 -4.16341 15.3164
head 10.6116 -0.659923 5.75765
rclavicle -1.59028e-014 7.95139e-015
rhumerus -46.2488 -15.9443 -74.4703
rradius 32.3519
rwrist 33.2623
rhand 5.98483 -33.0294
rfingers 7.12502
rthumb 31.3089 -60.3715
lclavicle -1.59028e-014 7.95139e-015
lhumerus 19.9944 -6.36138 68.8983
lradius 143.931
lwrist 70.2728
lhand -12.0704 10.8313
lfingers 7.12502
lthumb 13.9891 40.3406
rfemur -1.63432 22.9863 23.2016
rtibia 3.87197
rfoot -13.7708 -21.8495
rtoes 0.817456
lfemur 6.35797 -31.5009 -16.0057
ltibia -2.74185
lfoot -16.954 43.2349
ltoes 4.45868
324
root 0.66555 17.5181 9.99438 8.51193 -4.25488 -5.98578
lowerback -3.54059 0.535487 2.87035
upperback -10.661 0.782478 0.335965
thorax -9.23662 0.154462 -1.27802
lowerneck -4.30219 -0.294593 -3.24637
upperneck 29.787 -4.31447 15.3207
head 10.5973 -0.736336 5.75198
rclavicle 5.76476e-015 -1.51076e-014
rhumerus -46.4912 -16.0387 -73.9496
rradius 32.0806
rwrist 33.5164
rhand 6.09018 -32.9259
rfingers 7.12502
rthumb 31.4092 -60.2485
lclavicle 5.76476e-015 -1.51076e-014
lhumerus 19.8815 -7.40665 68.6036
lradius 145.311
lwrist 69.9415
lhand -12.0558 10.4767
lfingers 7.12502
lthumb 14.0032 39.9851
rfemur -1.38998 22.8549 23.3827
rtibia 3.94276
rfoot -13.9213 -22.1184
rtoes 1.06232
lfemur 6.47384 -31.6539 -16.0281
ltibia -2.73764
lfoot -16.8128 43.0977
ltoes 4.42497
325
root 0.673746 17.5148 9.98302 8.35081 -3.81469 -6.11248
lowerback -3.57881 0.496123 2.94173
upperback -10.7218 0.743556 0.489513
thorax -9.28649 0.136685 -1.15302
lowerneck -4.56147 -0.392326 -3.49425
upperneck 29.8632 -4.4697 15.459
head 10.704 -0.806873 5.84454
rclavicle 5.76476e-015 -3.18055e-015
rhumerus -46.6919 -16.135 -73.3332
rradius 31.7123
rwrist 33.8266
rhand 6.11832 -32.6436
rfingers 7.12502
rthumb 31.4361 -59.961
lclavicle 5.76476e-015 -3.18055e-015
lhumerus 19.887 -8.43085 68.3204
lradius 146.337
lwrist 69.5497
lhand -12.3271 10.1876
lfingers 7.12502
lthumb 13.7418 39.7138
rfemur -1.27075 22.6226 23.5956
rtibia 4.08508
rfoot -14.0174 -22.2443
rtoes 1.1999
lfemur 6.59264 -32.0226 -16.0107
ltibia -2.76507
lfoot -16.8967 43.2254
ltoes 4.5918
